<svg width="46" height="44" viewBox="0 0 46 44" fill="none" xmlns="http://www.w3.org/2000/svg">
<rect y="0.5" width="46" height="43" rx="4" fill="#23272E"/>
<path d="M36.8415 12.5017L35.8181 28.572L26.0333 7.5L36.8415 12.5017ZM30.0642 33.2814L22.6708 37.5L15.2773 33.2814L16.781 29.6371H28.5604L30.0642 33.2814ZM22.6708 15.4986L26.5449 24.9173H18.7965L22.6708 15.4986ZM9.51292 28.572L8.5 12.5017L19.3081 7.5L9.51292 28.572Z" fill="url(#paint0_linear_283_503)"/>
<path d="M36.8415 12.5017L35.8181 28.572L26.0333 7.5L36.8415 12.5017ZM30.0642 33.2814L22.6708 37.5L15.2773 33.2814L16.781 29.6371H28.5604L30.0642 33.2814ZM22.6708 15.4986L26.5449 24.9173H18.7965L22.6708 15.4986ZM9.51292 28.572L8.5 12.5017L19.3081 7.5L9.51292 28.572Z" fill="url(#paint1_linear_283_503)"/>
<defs>
<linearGradient id="paint0_linear_283_503" x1="14.7545" y1="34.7788" x2="37.3203" y2="24.0551" gradientUnits="userSpaceOnUse">
<stop stop-color="#E40035"/>
<stop offset="0.24" stop-color="#F60A48"/>
<stop offset="0.352" stop-color="#F20755"/>
<stop offset="0.494" stop-color="#DC087D"/>
<stop offset="0.745" stop-color="#9717E7"/>
<stop offset="1" stop-color="#6C00F5"/>
</linearGradient>
<linearGradient id="paint1_linear_283_503" x1="13.7356" y1="11.1173" x2="28.5033" y2="27.9631" gradientUnits="userSpaceOnUse">
<stop stop-color="#FF31D9"/>
<stop offset="1" stop-color="#FF5BE1" stop-opacity="0"/>
</linearGradient>
</defs>
</svg>
