<svg width="19" height="17" viewBox="0 0 19 17" fill="none" xmlns="http://www.w3.org/2000/svg">
<path d="M16.7042 0.117889H2.06723C1.71432 0.117889 1.37587 0.25808 1.12633 0.507622C0.876787 0.757164 0.736595 1.09562 0.736595 1.44852V14.7548C0.735092 15.0085 0.806791 15.2571 0.943093 15.471C1.07939 15.6849 1.27451 15.855 1.50504 15.9607C1.68119 16.0425 1.87301 16.0851 2.06723 16.0855C2.3796 16.0847 2.6816 15.9733 2.91966 15.7711L2.92715 15.7653L5.6433 13.4242H16.7042C17.0571 13.4242 17.3955 13.284 17.6451 13.0345C17.8946 12.7849 18.0348 12.4465 18.0348 12.0936V1.44852C18.0348 1.09562 17.8946 0.757164 17.6451 0.507622C17.3955 0.25808 17.0571 0.117889 16.7042 0.117889ZM16.7042 12.0936H5.39381C5.23405 12.0937 5.07967 12.1512 4.95886 12.2557L2.06723 14.7548V1.44852H16.7042V12.0936ZM6.05912 5.44042C6.05912 5.26396 6.12922 5.09474 6.25399 4.96997C6.37876 4.8452 6.54798 4.7751 6.72444 4.7751H12.047C12.2234 4.7751 12.3926 4.8452 12.5174 4.96997C12.6422 5.09474 12.7123 5.26396 12.7123 5.44042C12.7123 5.61687 12.6422 5.78609 12.5174 5.91086C12.3926 6.03564 12.2234 6.10573 12.047 6.10573H6.72444C6.54798 6.10573 6.37876 6.03564 6.25399 5.91086C6.12922 5.78609 6.05912 5.61687 6.05912 5.44042ZM6.05912 8.10168C6.05912 7.92523 6.12922 7.756 6.25399 7.63123C6.37876 7.50646 6.54798 7.43636 6.72444 7.43636H12.047C12.2234 7.43636 12.3926 7.50646 12.5174 7.63123C12.6422 7.756 12.7123 7.92523 12.7123 8.10168C12.7123 8.27813 12.6422 8.44736 12.5174 8.57213C12.3926 8.6969 12.2234 8.76699 12.047 8.76699H6.72444C6.54798 8.76699 6.37876 8.6969 6.25399 8.57213C6.12922 8.44736 6.05912 8.27813 6.05912 8.10168Z" fill="white"/>
</svg>
