<svg width="46" height="44" viewBox="0 0 46 44" fill="none" xmlns="http://www.w3.org/2000/svg">
<rect y="0.5" width="46" height="43" rx="4" fill="#23272E"/>
<g clip-path="url(#clip0_283_472)">
<path d="M8 7.5H33.2C34.473 7.5 35.6939 8.00571 36.5941 8.90589C37.4943 9.80606 38 11.027 38 12.3V32.7C38 33.973 37.4943 35.1939 36.5941 36.0941C35.6939 36.9943 34.473 37.5 33.2 37.5H12.8C11.527 37.5 10.3061 36.9943 9.40589 36.0941C8.50571 35.1939 8 33.973 8 32.7V7.5Z" fill="#663399"/>
<path d="M18.743 35.0999C16.8161 35.0981 15.6272 34.013 15.65 32.0162V26.9645C15.65 25.9523 15.9464 25.1825 16.5392 24.6557C17.6039 23.63 20.0741 23.5676 21.1169 24.6713C21.7595 25.238 22.0019 26.3957 21.9443 27.476H19.7327C19.7495 27.0515 19.727 26.4086 19.4774 26.1665C19.1531 25.7276 18.2966 25.7792 18.0701 26.2361C17.9309 26.4839 17.8613 26.8508 17.8613 27.3362V31.7216C17.8613 32.6411 18.1808 33.1061 18.8201 33.1163C19.1189 33.1163 19.346 33.0077 19.5005 32.7908C19.7162 32.5334 19.7498 31.9634 19.7324 31.5512H21.944C22.0952 33.6533 20.8544 35.126 18.7427 35.0999H18.743ZM25.7642 35.0999C23.6291 35.1293 22.6739 33.6101 22.733 31.5512H24.8207C24.7628 32.4488 25.0712 33.2663 25.8104 33.2093C26.1401 33.2093 26.3723 33.1061 26.5064 32.8994C26.7614 32.5217 26.8091 31.4309 26.4446 31.0088C26.1899 30.6023 25.2737 30.2435 24.7898 30.0017C24.0989 29.6711 23.6015 29.2787 23.2973 28.8239C22.6112 27.8147 22.6748 25.5995 23.6375 24.7019C24.5729 23.5943 27.0158 23.5433 27.9521 24.6788C28.5296 25.2641 28.7819 26.4158 28.733 27.4757H26.7224C26.7395 27.0401 26.6984 26.3372 26.5292 26.081C26.4107 25.8641 26.1863 25.7555 25.8566 25.7555C25.2689 25.7555 24.9752 26.1068 24.9752 26.8091C24.9815 27.5549 25.2722 27.8609 25.9496 28.1726C26.8268 28.5134 27.9422 29.0954 28.3466 29.7998C29.5526 31.946 28.7252 35.2244 25.7639 35.0993L25.7642 35.0999ZM32.507 35.0999C30.3719 35.1293 29.4167 33.6101 29.4758 31.5512H31.5635C31.5056 32.4488 31.814 33.2663 32.5532 33.2093C32.8829 33.2093 33.1151 33.1061 33.2492 32.8994C33.5042 32.5217 33.5519 31.4309 33.1874 31.0088C32.9327 30.6023 32.0165 30.2435 31.5326 30.0017C30.8417 29.6711 30.3443 29.2787 30.0401 28.8239C29.354 27.8147 29.4176 25.5995 30.3803 24.7019C31.3157 23.5943 33.7586 23.5433 34.6949 24.6788C35.2724 25.2641 35.5247 26.4158 35.4758 27.4757H33.4652C33.4823 27.0401 33.4412 26.3372 33.272 26.081C33.1535 25.8641 32.9291 25.7555 32.5994 25.7555C32.0117 25.7555 31.718 26.1068 31.718 26.8091C31.7243 27.5549 32.015 27.8609 32.6924 28.1726C33.5696 28.5134 34.685 29.0954 35.0894 29.7998C36.2954 31.946 35.468 35.2244 32.5067 35.0993L32.507 35.0999Z" fill="white"/>
</g>
<defs>
<clipPath id="clip0_283_472">
<rect width="30" height="30" fill="white" transform="translate(8 7.5)"/>
</clipPath>
</defs>
</svg>
