<svg width="46" height="44" viewBox="0 0 46 44" fill="none" xmlns="http://www.w3.org/2000/svg">
<rect y="0.5" width="46" height="43" rx="4" fill="#23272E"/>
<path d="M18.001 37C20.7604 37 23 34.76 23 32V27H18.001C15.2416 27 13.002 29.24 13.002 32C13.002 34.76 15.2416 37 18.001 37Z" fill="#0ACF83"/>
<path d="M13.002 22C13.002 19.24 15.2416 17 18.001 17H23V27H18.001C15.2416 27 13.002 24.76 13.002 22Z" fill="#A259FF"/>
<path d="M13.0019 12C13.0019 9.24 15.2415 7 18.0009 7H22.9999V17H18.0009C15.2415 17 13.0019 14.76 13.0019 12Z" fill="#F24E1E"/>
<path d="M23 7H27.999C30.7584 7 32.998 9.24 32.998 12C32.998 14.76 30.7584 17 27.999 17H23V7Z" fill="#FF7262"/>
<path d="M32.998 22C32.998 24.76 30.7584 27 27.999 27C25.2396 27 23 24.76 23 22C23 19.24 25.2396 17 27.999 17C30.7584 17 32.998 19.24 32.998 22Z" fill="#1ABCFE"/>
</svg>
