<svg width="46" height="44" viewBox="0 0 46 44" fill="none" xmlns="http://www.w3.org/2000/svg">
<rect y="0.5" width="46" height="43" rx="4" fill="#23272E"/>
<g clip-path="url(#clip0_283_449)">
<path d="M12.5641 7.5H32.4359C35.4487 7.5 37.8846 9.9359 37.8846 12.9487V32.0513C37.8846 35.0641 35.4487 37.5 32.4359 37.5H12.5641C9.55128 37.5 7.11539 35.0641 7.11539 32.0513V12.9487C7.11539 9.9359 9.55128 7.5 12.5641 7.5Z" fill="#330000"/>
<path d="M21.9872 25.4487H17.218L16.2436 28.4615C16.218 28.5769 16.1154 28.6538 16 28.641H13.5897C13.4487 28.641 13.4103 28.5641 13.4487 28.4102L17.5769 16.5256C17.6154 16.3974 17.6539 16.2564 17.7051 16.1025C17.7564 15.8333 17.7821 15.5512 17.7821 15.2692C17.7692 15.2051 17.8205 15.141 17.8846 15.1282H21.2051C21.3077 15.1282 21.359 15.1666 21.3718 15.2307L26.0513 28.4359C26.0897 28.5769 26.0513 28.641 25.9231 28.641H23.2436C23.1539 28.6538 23.0641 28.5897 23.0385 28.5L21.9872 25.4487ZM17.9615 22.8461H21.218C21.141 22.5769 21.0385 22.2564 20.9231 21.923C20.8077 21.5769 20.6923 21.2051 20.5769 20.8205C20.4487 20.423 20.3333 20.0384 20.2051 19.641C20.0769 19.2436 19.9615 18.8718 19.859 18.5C19.7564 18.141 19.6667 17.8077 19.5769 17.5H19.5513C19.4359 18.0512 19.2949 18.6025 19.1154 19.1538C18.9231 19.7692 18.7308 20.4102 18.5256 21.0512C18.3462 21.7051 18.1539 22.3077 17.9615 22.8461ZM28.9103 17.3718C28.4872 17.3846 28.0769 17.2179 27.7692 16.923C27.4744 16.6025 27.3205 16.1794 27.3333 15.7436C27.3205 15.3077 27.4872 14.8974 27.7949 14.6025C28.1026 14.3077 28.5128 14.1538 28.9359 14.1538C29.4359 14.1538 29.8205 14.3077 30.1026 14.6025C30.3846 14.9102 30.5385 15.3205 30.5256 15.7436C30.5385 16.1794 30.3846 16.6025 30.0769 16.923C29.7821 17.2307 29.3462 17.3974 28.9103 17.3718ZM27.4744 28.5V18.6282C27.4744 18.5 27.5256 18.4487 27.641 18.4487H30.1795C30.2949 18.4487 30.3462 18.5128 30.3462 18.6282V28.5C30.3462 28.641 30.2949 28.7051 30.1795 28.7051H27.6667C27.5385 28.7051 27.4744 28.6282 27.4744 28.5Z" fill="#FF9A00"/>
</g>
<defs>
<clipPath id="clip0_283_449">
<rect width="30.7692" height="30" fill="white" transform="translate(7.11539 7.5)"/>
</clipPath>
</defs>
</svg>
