<svg width="46" height="44" viewBox="0 0 46 44" fill="none" xmlns="http://www.w3.org/2000/svg">
<rect y="0.5" width="46" height="43" rx="4" fill="#23272E"/>
<path d="M8 37.5V7.5H38V37.5H8Z" fill="#FFD600"/>
<path d="M27.615 29.9558C28.1917 30.8924 28.8183 31.7899 30.1458 31.7899C31.2608 31.7899 31.8458 31.2358 31.8458 30.4691C31.8458 29.5516 31.2408 29.2258 30.0142 28.6916L29.3417 28.4049C27.4008 27.5816 26.11 26.5499 26.11 24.3708C26.11 22.3624 27.6475 20.8341 30.05 20.8341C31.7608 20.8341 32.99 21.4266 33.8767 22.9783L31.7817 24.3174C31.3208 23.4941 30.8225 23.1699 30.05 23.1699C29.2617 23.1699 28.7625 23.6674 28.7625 24.3174C28.7625 25.1208 29.2625 25.4458 30.4167 25.9433L31.0892 26.2299C33.3767 27.2041 34.6667 28.1991 34.6667 30.4358C34.6667 32.8458 32.7633 34.1666 30.2083 34.1666C27.7092 34.1666 26.29 32.9124 25.5 31.3599L27.615 29.9558ZM17.96 30.0241C18.3817 30.7791 19.0225 31.3599 19.9442 31.3599C20.8258 31.3599 21.3333 31.0116 21.3333 29.6574V20.8333H24.1108V30.0841C24.1108 32.8899 22.4833 34.1666 20.1067 34.1666C17.9592 34.1666 16.4092 32.7116 15.7775 31.3599L17.96 30.0241Z" fill="#000001"/>
</svg>
