<svg width="46" height="44" viewBox="0 0 46 44" fill="none" xmlns="http://www.w3.org/2000/svg">
<rect y="0.5" width="46" height="43" rx="4" fill="#23272E"/>
<g clip-path="url(#clip0_283_435)">
<path d="M12.5641 7.5H32.4359C35.4487 7.5 37.8846 9.9359 37.8846 12.9487V32.0513C37.8846 35.0641 35.4487 37.5 32.4359 37.5H12.5641C9.55128 37.5 7.11539 35.0641 7.11539 32.0513V12.9487C7.11539 9.9359 9.55128 7.5 12.5641 7.5Z" fill="#001E36"/>
<path d="M14.0385 28.5384V15.3461C14.0385 15.2564 14.0769 15.2051 14.1667 15.2051C14.3846 15.2051 14.5897 15.2051 14.8846 15.1923C15.1923 15.1795 15.5128 15.1795 15.859 15.1666C16.2051 15.1538 16.5769 15.1538 16.9744 15.141C17.3718 15.1282 17.7564 15.1282 18.141 15.1282C19.1923 15.1282 20.0641 15.2564 20.7821 15.5256C21.4231 15.7436 22.0128 16.1025 22.5 16.5769C22.9103 16.9871 23.2308 17.4871 23.4359 18.0384C23.6282 18.5769 23.7308 19.1282 23.7308 19.7051C23.7308 20.8077 23.4744 21.7179 22.9615 22.4359C22.4487 23.1538 21.7308 23.6923 20.8974 24C20.0256 24.3205 19.0641 24.4359 18.0128 24.4359C17.7051 24.4359 17.5 24.4359 17.3718 24.423C17.2436 24.4102 17.0641 24.4102 16.8205 24.4102V28.5256C16.8333 28.6154 16.7692 28.6923 16.6795 28.7051C16.6667 28.7051 16.6539 28.7051 16.6282 28.7051H14.1923C14.0897 28.7051 14.0385 28.6538 14.0385 28.5384ZM16.8333 17.6795V21.9871C17.0128 22 17.1795 22.0128 17.3333 22.0128H18.0128C18.5128 22.0128 19.0128 21.9359 19.4872 21.782C19.8974 21.6666 20.2564 21.423 20.5385 21.1025C20.8077 20.782 20.9359 20.3461 20.9359 19.782C20.9487 19.3846 20.8462 18.9871 20.641 18.641C20.4231 18.3077 20.1154 18.0513 19.7436 17.9102C19.2692 17.7179 18.7564 17.641 18.2308 17.6538C17.8974 17.6538 17.6026 17.6538 17.359 17.6666C17.1026 17.6538 16.9231 17.6666 16.8333 17.6795Z" fill="#31A8FF"/>
<path d="M31.7308 21.2051C31.3462 20.9999 30.9359 20.8589 30.5 20.7692C30.0256 20.6666 29.5513 20.6025 29.0641 20.6025C28.8077 20.5897 28.5385 20.6281 28.2949 20.6922C28.1282 20.7307 27.9872 20.8204 27.8974 20.9486C27.8333 21.0512 27.7949 21.1794 27.7949 21.2948C27.7949 21.4102 27.8462 21.5256 27.9231 21.6281C28.0385 21.7692 28.1923 21.8845 28.359 21.9743C28.6539 22.1281 28.9615 22.2692 29.2692 22.3974C29.9615 22.6281 30.6282 22.9486 31.2436 23.3333C31.6667 23.6025 32.0128 23.9615 32.2564 24.3974C32.4615 24.8076 32.5641 25.2563 32.5513 25.7179C32.5641 26.3204 32.3846 26.923 32.0513 27.423C31.6923 27.9358 31.1923 28.3333 30.6154 28.564C29.9872 28.8333 29.218 28.9743 28.2949 28.9743C27.7051 28.9743 27.1282 28.923 26.5513 28.8076C26.1026 28.7307 25.6539 28.5897 25.2436 28.3974C25.1539 28.3461 25.0897 28.2563 25.1026 28.1538V25.923C25.1026 25.8845 25.1154 25.8333 25.1539 25.8076C25.1923 25.782 25.2308 25.7948 25.2692 25.8204C25.7692 26.1153 26.2949 26.3204 26.859 26.4486C27.3462 26.5768 27.859 26.641 28.3718 26.641C28.859 26.641 29.2051 26.5768 29.4359 26.4615C29.641 26.3717 29.7821 26.1538 29.7821 25.923C29.7821 25.7435 29.6795 25.5768 29.4744 25.4102C29.2692 25.2435 28.8462 25.0512 28.218 24.8076C27.5641 24.5768 26.9615 24.2692 26.3974 23.8845C26 23.6025 25.6667 23.2307 25.4231 22.7948C25.218 22.3845 25.1154 21.9358 25.1282 21.4871C25.1282 20.9358 25.2821 20.4102 25.5641 19.9358C25.8846 19.423 26.359 19.0127 26.9103 18.7563C27.5128 18.4486 28.2692 18.3076 29.1795 18.3076C29.7051 18.3076 30.2436 18.3461 30.7692 18.423C31.1539 18.4743 31.5256 18.5768 31.8718 18.7179C31.9231 18.7307 31.9744 18.782 32 18.8333C32.0128 18.8845 32.0256 18.9358 32.0256 18.9871V21.0768C32.0256 21.1281 32 21.1794 31.9615 21.2051C31.8462 21.2307 31.7821 21.2307 31.7308 21.2051Z" fill="#31A8FF"/>
</g>
<defs>
<clipPath id="clip0_283_435">
<rect width="30.7692" height="30" fill="white" transform="translate(7.11539 7.5)"/>
</clipPath>
</defs>
</svg>
