<svg width="46" height="44" viewBox="0 0 46 44" fill="none" xmlns="http://www.w3.org/2000/svg">
<rect y="0.5" width="46" height="43" rx="4" fill="#23272E"/>
<path d="M38 7H8V37H38V7Z" fill="#1976D2"/>
<path d="M25.9083 20.3334H14.8558V23.0534H18.82V35.3334H21.9608V23.0534H25.9083V20.3334Z" fill="white"/>
<path d="M35.6617 23.7367C35.6617 23.7367 34.1725 22.7433 32.4892 22.7433C30.8058 22.7433 30.2 23.5433 30.2 24.3983C30.2 26.605 36.3508 26.3842 36.3508 30.825C36.3508 37.6658 26.9725 34.6317 26.9725 34.6317V31.35C26.9725 31.35 28.7658 32.7017 30.9167 32.7017C33.0675 32.7017 32.9858 31.295 32.9858 31.1017C32.9858 29.0608 26.89 29.0608 26.89 24.5367C26.89 18.3858 35.7717 20.8125 35.7717 20.8125L35.6617 23.7367Z" fill="white"/>
</svg>
